<svg viewBox="0 0 128 128" xmlns="http://www.w3.org/2000/svg">
  <defs>
    <linearGradient id="paint0_linear_2160_23" x1="851.318" y1="47.553" x2="756.751" y2="339.402" gradientUnits="userSpaceOnUse">
      <stop offset="0%" stop-color="hsla(202, 71%, 27%, 1)"/>
      <stop offset="25%" stop-color="hsla(196, 60%, 37%, 1)"/>
      <stop offset="50%" stop-color="hsla(190, 50%, 47%, 1)"/>
      <stop offset="75%" stop-color="hsla(184, 45%, 56%, 1)"/>
      <stop offset="100%" stop-color="hsla(176, 45%, 66%, 1)"/>
    </linearGradient>
  </defs>
  <path fill="url(#paint0_linear_2160_23)" d="M115.4 30.7L67.1 2.9c-.8-.5-1.9-.7-3.1-.7-1.2 0-2.3.3-3.1.7l-48 27.9c-1.7 1-2.9 3.5-2.9 5.4v55.7c0 1.1.2 2.4 1 3.5l106.8-62c-.6-1.2-1.5-2.1-2.4-2.7z"></path>
  <path fill="url(#paint0_linear_2160_23)" d="M10.7 95.3c.5.8 1.2 1.5 1.9 1.9l48.2 27.9c.8.5 1.9.7 3.1.7 1.2 0 2.3-.3 3.1-.7l48-27.9c1.7-1 2.9-3.5 2.9-5.4V36.1c0-.9-.1-1.9-.6-2.8l-106.6 62z"></path>
  <path fill="#fff" d="M85.3 76.1C81.1 83.5 73.1 88.5 64 88.5c-13.5 0-24.5-11-24.5-24.5s11-24.5 24.5-24.5c9.1 0 17.1 5 21.3 12.5l13-7.5c-6.8-11.9-19.6-20-34.3-20-21.8 0-39.5 17.7-39.5 39.5s17.7 39.5 39.5 39.5c14.6 0 27.4-8 34.2-19.8l-12.9-7.6zM97 66.2l.9-4.3h-4.2v-4.7h5.1L100 51h4.9l-1.2 6.1h3.8l1.2-6.1h4.8l-1.2 6.1h2.4v4.7h-3.3l-.9 4.3h4.2v4.7h-5.1l-1.2 6h-4.9l1.2-6h-3.8l-1.2 6h-4.8l1.2-6h-2.4v-4.7H97zm4.8 0h3.8l.9-4.3h-3.8l-.9 4.3z"></path>
</svg>
